<svg width="49" height="49" viewBox="0 0 49 49" fill="none" xmlns="http://www.w3.org/2000/svg">
<path d="M38.8335 21.1665H23.5002C22.5668 21.1665 21.8335 20.4332 21.8335 19.4998V12.8332C21.8335 11.8998 22.5668 11.1665 23.5002 11.1665H38.8335C39.7668 11.1665 40.5002 11.8998 40.5002 12.8332V19.4998C40.5002 20.4332 39.7668 21.1665 38.8335 21.1665Z" fill="#6C87FE"/>
<path d="M40.3662 41.1668H8.63285C6.36618 41.1668 4.49951 39.1668 4.49951 36.7668V12.2335C4.49951 9.8335 6.36618 7.8335 8.63285 7.8335H20.9662C22.0995 7.8335 23.1662 8.50016 23.6995 9.56683L25.8328 16.5002H40.3662C42.6328 16.5002 44.4995 18.1002 44.4995 20.5002V36.7668C44.4995 39.1668 42.6328 41.1668 40.3662 41.1668Z" fill="#8AA3FF"/>
<path d="M5.63232 39.8335C7.09899 41.4335 8.76566 41.1668 9.83232 41.1668H39.8323C40.5657 41.1668 41.9657 41.2335 43.3657 39.8335H5.63232Z" fill="#798BFF"/>
</svg>
