<svg width="210" height="210" viewBox="0 0 210 210" fill="none" xmlns="http://www.w3.org/2000/svg">
<mask id="mask0_4110_64441" style="mask-type:alpha" maskUnits="userSpaceOnUse" x="0" y="0" width="210" height="210">
<path d="M105 210C162.99 210 210 162.99 210 105C210 47.0101 162.99 0 105 0C47.0101 0 0 47.0101 0 105C0 162.99 47.0101 210 105 210Z" fill="#DEDEDE"/>
</mask>
<g mask="url(#mask0_4110_64441)">
<path d="M209 105C209 162.438 162.438 209 105 209C47.5624 209 1 162.438 1 105C1 47.5624 47.5624 1 105 1C162.438 1 209 47.5624 209 105Z" fill="#FAFAFA" stroke="#96A3BE" stroke-width="2"/>
<path d="M104.999 127.885C126.595 127.885 144.101 110.378 144.101 88.7826C144.101 67.1869 126.595 49.6802 104.999 49.6802C83.4032 49.6802 65.8965 67.1869 65.8965 88.7826C65.8965 110.378 83.4032 127.885 104.999 127.885Z" fill="#96A3BE"/>
<path d="M105 147.436C65.8197 147.436 33.9121 173.713 33.9121 206.09C33.9121 208.279 35.6326 210 37.8223 210H172.178C174.368 210 176.088 208.279 176.088 206.09C176.088 173.713 144.181 147.436 105 147.436Z" fill="#96A3BE"/>
</g>
</svg>
