<svg width="25" height="24" viewBox="0 0 25 24" fill="none" xmlns="http://www.w3.org/2000/svg">
<g clip-path="url(#clip0_4456_19895)">
<path d="M11.9345 15.2788L10.3423 13.6865C10.2679 13.6122 10.1868 13.5564 10.099 13.5192C10.0112 13.4821 9.92083 13.4635 9.828 13.4635C9.735 13.4635 9.64042 13.4821 9.54425 13.5192C9.44808 13.5564 9.36283 13.6122 9.2885 13.6865C9.13333 13.8417 9.05575 14.0199 9.05575 14.2213C9.05575 14.4224 9.13333 14.6006 9.2885 14.7558L11.3173 16.8C11.4109 16.8935 11.5097 16.9595 11.6135 16.998C11.7173 17.0365 11.8295 17.0557 11.95 17.0557C12.0705 17.0557 12.1827 17.0365 12.2865 16.998C12.3903 16.9595 12.4891 16.8935 12.5827 16.8L16.7115 12.671C16.8602 12.5223 16.9362 12.3433 16.9395 12.1337C16.9427 11.9241 16.8667 11.7417 16.7115 11.5865C16.5563 11.4313 16.3756 11.3538 16.1693 11.3538C15.9629 11.3538 15.7822 11.4313 15.627 11.5865L11.9345 15.2788ZM7.30775 21.5C6.80258 21.5 6.375 21.325 6.025 20.975C5.675 20.625 5.5 20.1974 5.5 19.6923V4.30775C5.5 3.80258 5.675 3.375 6.025 3.025C6.375 2.675 6.80258 2.5 7.30775 2.5H14.502C14.743 2.5 14.9748 2.54683 15.1973 2.6405C15.4196 2.734 15.6128 2.86283 15.777 3.027L19.973 7.223C20.1372 7.38717 20.266 7.58042 20.3595 7.80275C20.4532 8.02525 20.5 8.257 20.5 8.498V19.6923C20.5 20.1974 20.325 20.625 19.975 20.975C19.625 21.325 19.1974 21.5 18.6923 21.5H7.30775ZM14.5 7.596V4H7.30775C7.23075 4 7.16025 4.03208 7.09625 4.09625C7.03208 4.16025 7 4.23075 7 4.30775V19.6923C7 19.7693 7.03208 19.8398 7.09625 19.9038C7.16025 19.9679 7.23075 20 7.30775 20H18.6923C18.7692 20 18.8398 19.9679 18.9038 19.9038C18.9679 19.8398 19 19.7693 19 19.6923V8.5H15.404C15.1462 8.5 14.9311 8.41375 14.7587 8.24125C14.5862 8.06892 14.5 7.85383 14.5 7.596Z" fill="#194BFB"/>
</g>
<defs>
<clipPath id="clip0_4456_19895">
<rect width="24" height="24" fill="white" transform="translate(0.5)"/>
</clipPath>
</defs>
</svg>
