<svg width="41" height="40" viewBox="0 0 41 40" fill="none" xmlns="http://www.w3.org/2000/svg">
<rect x="1" y="0.5" width="39" height="39" rx="3.5" fill="white"/>
<rect x="1" y="0.5" width="39" height="39" rx="3.5" stroke="#BFCDFF"/>
<path d="M24.0385 26.7693C24.232 26.7693 24.399 26.6991 24.5395 26.5587C24.6798 26.4183 24.75 26.2513 24.75 26.0577C24.75 25.8641 24.6798 25.6971 24.5395 25.5568C24.399 25.4164 24.232 25.3462 24.0385 25.3462C23.8448 25.3462 23.6778 25.4164 23.5375 25.5568C23.3972 25.6971 23.327 25.8641 23.327 26.0577C23.327 26.2513 23.3972 26.4183 23.5375 26.5587C23.6778 26.6991 23.8448 26.7693 24.0385 26.7693ZM26.5 26.7693C26.6937 26.7693 26.8607 26.6991 27.001 26.5587C27.1413 26.4183 27.2115 26.2513 27.2115 26.0577C27.2115 25.8641 27.1413 25.6971 27.001 25.5568C26.8607 25.4164 26.6937 25.3462 26.5 25.3462C26.3063 25.3462 26.1393 25.4164 25.999 25.5568C25.8587 25.6971 25.7885 25.8641 25.7885 26.0577C25.7885 26.2513 25.8587 26.4183 25.999 26.5587C26.1393 26.6991 26.3063 26.7693 26.5 26.7693ZM28.9615 26.7693C29.1552 26.7693 29.3222 26.6991 29.4625 26.5587C29.6028 26.4183 29.673 26.2513 29.673 26.0577C29.673 25.8641 29.6028 25.6971 29.4625 25.5568C29.3222 25.4164 29.1552 25.3462 28.9615 25.3462C28.768 25.3462 28.601 25.4164 28.4605 25.5568C28.3202 25.6971 28.25 25.8641 28.25 26.0577C28.25 26.2513 28.3202 26.4183 28.4605 26.5587C28.601 26.6991 28.768 26.7693 28.9615 26.7693ZM13.8077 28.5C13.3106 28.5 12.885 28.323 12.531 27.969C12.177 27.615 12 27.1894 12 26.6923V13.3077C12 12.8106 12.177 12.385 12.531 12.031C12.885 11.677 13.3106 11.5 13.8077 11.5H27.1923C27.6894 11.5 28.115 11.677 28.469 12.031C28.823 12.385 29 12.8106 29 13.3077V18.3655C29 18.578 28.9281 18.7561 28.7843 18.8997C28.6404 19.0436 28.4622 19.1155 28.2498 19.1155C28.0371 19.1155 27.859 19.0436 27.7155 18.8997C27.5718 18.7561 27.5 18.578 27.5 18.3655V13.3077C27.5 13.2307 27.4679 13.1602 27.4038 13.0962C27.3398 13.0321 27.2692 13 27.1923 13H13.8077C13.7307 13 13.6603 13.0321 13.5963 13.0962C13.5321 13.1602 13.5 13.2307 13.5 13.3077V26.6923C13.5 26.7692 13.5321 26.8398 13.5963 26.9038C13.6603 26.9679 13.7307 27 13.8077 27H18.8655C19.078 27 19.2561 27.0719 19.3997 27.2158C19.5436 27.3596 19.6155 27.5378 19.6155 27.7502C19.6155 27.9629 19.5436 28.141 19.3997 28.2845C19.2561 28.4282 19.078 28.5 18.8655 28.5H13.8077ZM13.5 26.0033V27V13V19.1905V19.1155V26.0033ZM15.75 23.885C15.75 24.0975 15.8219 24.2756 15.9658 24.4193C16.1094 24.5628 16.2875 24.6345 16.5 24.6345H19.0173C19.2298 24.6345 19.4079 24.5626 19.5518 24.4187C19.6954 24.2751 19.7673 24.0969 19.7673 23.8842C19.7673 23.6718 19.6954 23.4937 19.5518 23.35C19.4079 23.2065 19.2298 23.1348 19.0173 23.1348H16.5C16.2875 23.1348 16.1094 23.2066 15.9658 23.3503C15.8219 23.4941 15.75 23.6723 15.75 23.885ZM15.75 20.0003C15.75 20.2129 15.8219 20.391 15.9658 20.5345C16.1094 20.6782 16.2875 20.75 16.5 20.75H22.2405C22.453 20.75 22.6311 20.6781 22.7747 20.5343C22.9186 20.3904 22.9905 20.2122 22.9905 19.9998C22.9905 19.7871 22.9186 19.609 22.7747 19.4655C22.6311 19.3218 22.453 19.25 22.2405 19.25H16.5C16.2875 19.25 16.1094 19.3219 15.9658 19.4658C15.8219 19.6096 15.75 19.7878 15.75 20.0003ZM15.75 16.1158C15.75 16.3283 15.8219 16.5063 15.9658 16.65C16.1094 16.7935 16.2875 16.8652 16.5 16.8652H24.5C24.7125 16.8652 24.8906 16.7934 25.0343 16.6497C25.1781 16.5059 25.25 16.3277 25.25 16.115C25.25 15.9025 25.1781 15.7244 25.0343 15.5807C24.8906 15.4372 24.7125 15.3655 24.5 15.3655H16.5C16.2875 15.3655 16.1094 15.4374 15.9658 15.5813C15.8219 15.7249 15.75 15.9031 15.75 16.1158ZM26.5 30.5578C25.2513 30.5578 24.1892 30.1199 23.3135 29.2443C22.4378 28.3686 22 27.3064 22 26.0577C22 24.8091 22.4378 23.7469 23.3135 22.8713C24.1892 21.9956 25.2513 21.5577 26.5 21.5577C27.7487 21.5577 28.8108 21.9956 29.6865 22.8713C30.5622 23.7469 31 24.8091 31 26.0577C31 27.3064 30.5622 28.3686 29.6865 29.2443C28.8108 30.1199 27.7487 30.5578 26.5 30.5578Z" fill="#194BFB"/>
</svg>
