<svg width="25" height="24" viewBox="0 0 25 24" fill="none" xmlns="http://www.w3.org/2000/svg">
<path d="M6.30775 20.5C5.81058 20.5 5.385 20.323 5.031 19.969C4.677 19.615 4.5 19.1894 4.5 18.6923V5.30775C4.5 4.81058 4.677 4.385 5.031 4.031C5.385 3.677 5.81058 3.5 6.30775 3.5H10.7578C10.8206 2.94483 11.0629 2.47275 11.4848 2.08375C11.9064 1.69458 12.4131 1.5 13.0048 1.5C13.5964 1.5 14.1032 1.69458 14.525 2.08375C14.9468 2.47275 15.1859 2.94483 15.2423 3.5H19.6923C20.1894 3.5 20.615 3.677 20.969 4.031C21.323 4.385 21.5 4.81058 21.5 5.30775V18.6923C21.5 19.1894 21.323 19.615 20.969 19.969C20.615 20.323 20.1894 20.5 19.6923 20.5H6.30775ZM6.30775 19H19.6923C19.7692 19 19.8398 18.9679 19.9038 18.9038C19.9679 18.8398 20 18.7693 20 18.6923V5.30775C20 5.23075 19.9679 5.16025 19.9038 5.09625C19.8398 5.03208 19.7692 5 19.6923 5H6.30775C6.23075 5 6.16025 5.03208 6.09625 5.09625C6.03208 5.16025 6 5.23075 6 5.30775V18.6923C6 18.7693 6.03208 18.8398 6.09625 18.9038C6.16025 18.9679 6.23075 19 6.30775 19ZM9 16.6345H14C14.2125 16.6345 14.3906 16.5626 14.5343 16.4187C14.6781 16.2751 14.75 16.0969 14.75 15.8842C14.75 15.6718 14.6781 15.4937 14.5343 15.35C14.3906 15.2065 14.2125 15.1348 14 15.1348H9C8.7875 15.1348 8.60942 15.2066 8.46575 15.3503C8.32192 15.4941 8.25 15.6723 8.25 15.885C8.25 16.0975 8.32192 16.2756 8.46575 16.4193C8.60942 16.5628 8.7875 16.6345 9 16.6345ZM9 12.75H17C17.2125 12.75 17.3906 12.6781 17.5343 12.5343C17.6781 12.3904 17.75 12.2122 17.75 11.9998C17.75 11.7871 17.6781 11.609 17.5343 11.4655C17.3906 11.3218 17.2125 11.25 17 11.25H9C8.7875 11.25 8.60942 11.3219 8.46575 11.4658C8.32192 11.6096 8.25 11.7878 8.25 12.0003C8.25 12.2129 8.32192 12.391 8.46575 12.5345C8.60942 12.6782 8.7875 12.75 9 12.75ZM9 8.86525H17C17.2125 8.86525 17.3906 8.79342 17.5343 8.64975C17.6781 8.50592 17.75 8.32767 17.75 8.115C17.75 7.9025 17.6781 7.72442 17.5343 7.58075C17.3906 7.43725 17.2125 7.3655 17 7.3655H9C8.7875 7.3655 8.60942 7.43742 8.46575 7.58125C8.32192 7.72492 8.25 7.90308 8.25 8.11575C8.25 8.32825 8.32192 8.50633 8.46575 8.65C8.60942 8.7935 8.7875 8.86525 9 8.86525ZM13 4.34625C13.2167 4.34625 13.3958 4.27542 13.5375 4.13375C13.6792 3.99208 13.75 3.81292 13.75 3.59625C13.75 3.37958 13.6792 3.20042 13.5375 3.05875C13.3958 2.91708 13.2167 2.84625 13 2.84625C12.7833 2.84625 12.6042 2.91708 12.4625 3.05875C12.3208 3.20042 12.25 3.37958 12.25 3.59625C12.25 3.81292 12.3208 3.99208 12.4625 4.13375C12.6042 4.27542 12.7833 4.34625 13 4.34625Z" fill="#194BFB"/>
</svg>
