<svg width="18" height="16" viewBox="0 0 18 16" fill="none" xmlns="http://www.w3.org/2000/svg">
<path d="M14.6538 15.6552C13.7169 15.6552 12.925 15.3317 12.278 14.6849C11.6312 14.0379 11.3077 13.246 11.3077 12.3092C11.3077 11.3722 11.6312 10.5802 12.278 9.93341C12.925 9.28641 13.7169 8.96291 14.6538 8.96291C15.5908 8.96291 16.3827 9.28641 17.0295 9.93341C17.6765 10.5802 18 11.3722 18 12.3092C18 13.246 17.6765 14.0379 17.0295 14.6849C16.3827 15.3317 15.5908 15.6552 14.6538 15.6552ZM14.6528 14.1552C15.1624 14.1552 15.5977 13.9751 15.9587 13.6149C16.3196 13.2546 16.5 12.8197 16.5 12.3102C16.5 11.8005 16.3198 11.3652 15.9595 11.0042C15.5993 10.6433 15.1644 10.4629 14.6547 10.4629C14.1451 10.4629 13.7098 10.6431 13.349 11.0034C12.9882 11.3636 12.8077 11.7985 12.8077 12.3082C12.8077 12.8178 12.9878 13.2531 13.348 13.6139C13.7083 13.9747 14.1432 14.1552 14.6528 14.1552ZM8.3655 13.0592H2.25C2.0375 13.0592 1.85942 12.9872 1.71575 12.8434C1.57192 12.6996 1.5 12.5213 1.5 12.3087C1.5 12.0962 1.57192 11.9181 1.71575 11.7744C1.85942 11.6309 2.0375 11.5592 2.25 11.5592H8.3655C8.578 11.5592 8.75608 11.6311 8.89975 11.7749C9.04358 11.9187 9.1155 12.0969 9.1155 12.3094C9.1155 12.5221 9.04358 12.7002 8.89975 12.8437C8.75608 12.9873 8.578 13.0592 8.3655 13.0592ZM3.34625 7.03991C2.40925 7.03991 1.61733 6.71641 0.9705 6.06941C0.3235 5.42257 0 4.63066 0 3.69366C0 2.75682 0.3235 1.96491 0.9705 1.31791C1.61733 0.671073 2.40925 0.347656 3.34625 0.347656C4.28308 0.347656 5.075 0.671073 5.722 1.31791C6.36883 1.96491 6.69225 2.75682 6.69225 3.69366C6.69225 4.63066 6.36883 5.42257 5.722 6.06941C5.075 6.71641 4.28308 7.03991 3.34625 7.03991ZM3.34525 5.53991C3.85492 5.53991 4.29017 5.35974 4.651 4.99941C5.01183 4.63924 5.19225 4.20432 5.19225 3.69466C5.19225 3.18499 5.01217 2.74974 4.652 2.38891C4.29167 2.02807 3.85675 1.84766 3.34725 1.84766C2.83758 1.84766 2.40225 2.02774 2.04125 2.38791C1.68042 2.74824 1.5 3.18316 1.5 3.69266C1.5 4.20232 1.68017 4.63766 2.0405 4.99866C2.40067 5.35949 2.83558 5.53991 3.34525 5.53991ZM15.75 4.44366H9.6345C9.422 4.44366 9.24392 4.37174 9.10025 4.22791C8.95642 4.08407 8.8845 3.90591 8.8845 3.69341C8.8845 3.48074 8.95642 3.30266 9.10025 3.15916C9.24392 3.01549 9.422 2.94366 9.6345 2.94366H15.75C15.9625 2.94366 16.1406 3.01557 16.2843 3.15941C16.4281 3.30324 16.5 3.48149 16.5 3.69416C16.5 3.90666 16.4281 4.08474 16.2843 4.22841C16.1406 4.37191 15.9625 4.44366 15.75 4.44366Z" fill="#96A3BE"/>
</svg>
