<svg width="22" height="22" viewBox="0 0 22 22" fill="none" xmlns="http://www.w3.org/2000/svg">
<path d="M20.6259 11.2139C20.6259 10.4225 20.5604 9.84497 20.4186 9.24609H11.1974V12.818H16.61C16.501 13.7057 15.9117 15.0425 14.6021 15.9408L14.5838 16.0603L17.4993 18.2738L17.7013 18.2936C19.5565 16.6145 20.6259 14.1441 20.6259 11.2139Z" fill="#4285F4"/>
<path d="M11.1968 20.6248C13.8485 20.6248 16.0747 19.7692 17.7007 18.2934L14.6015 15.9405C13.7722 16.5073 12.659 16.903 11.1968 16.903C8.59958 16.903 6.39524 15.224 5.60945 12.9033L5.49427 12.9129L2.46262 15.2122L2.42297 15.3202C4.03803 18.4644 7.35548 20.6248 11.1968 20.6248Z" fill="#34A853"/>
<path d="M5.61006 12.9034C5.40272 12.3045 5.28273 11.6628 5.28273 10.9997C5.28273 10.3366 5.40272 9.695 5.59915 9.09612L5.59366 8.96857L2.524 6.63232L2.42357 6.67914C1.75792 7.98388 1.37598 9.44905 1.37598 10.9997C1.37598 12.5504 1.75792 14.0155 2.42357 15.3203L5.61006 12.9034Z" fill="#FBBC05"/>
<path d="M11.1968 5.09664C13.041 5.09664 14.2851 5.87733 14.9944 6.52974L17.7662 3.8775C16.0639 2.32681 13.8486 1.375 11.1968 1.375C7.35551 1.375 4.03804 3.53526 2.42297 6.6794L5.59856 9.09638C6.39526 6.77569 8.59961 5.09664 11.1968 5.09664Z" fill="#EB4335"/>
</svg>
