<svg width="61" height="38" viewBox="0 0 61 38" fill="none" xmlns="http://www.w3.org/2000/svg">
<path fill-rule="evenodd" clip-rule="evenodd" d="M57.985 6.28455C59.374 6.28455 60.5 7.41054 60.5 8.79952C60.5 10.1885 59.374 11.3145 57.985 11.3145H43.6138C45.0028 11.3145 46.1287 12.4405 46.1287 13.8295C46.1287 15.2184 45.0028 16.3444 43.6138 16.3444H51.518C52.9069 16.3444 54.0329 17.4704 54.0329 18.8594C54.0329 20.2484 52.9069 21.3744 51.518 21.3744H47.8627C46.1113 21.3744 44.6916 22.5004 44.6916 23.8893C44.6916 24.8153 45.4102 25.6536 46.8473 26.4043C48.2363 26.4043 49.3623 27.5303 49.3623 28.9193C49.3623 30.3083 48.2363 31.4342 46.8473 31.4342H17.0269C15.638 31.4342 14.512 30.3083 14.512 28.9193C14.512 27.5303 15.638 26.4043 17.0269 26.4043H3.01497C1.62599 26.4043 0.5 25.2783 0.5 23.8893C0.5 22.5004 1.62599 21.3744 3.01497 21.3744H17.3862C18.7752 21.3744 19.9012 20.2484 19.9012 18.8594C19.9012 17.4704 18.7752 16.3444 17.3862 16.3444H8.40419C7.01521 16.3444 5.88922 15.2184 5.88922 13.8295C5.88922 12.4405 7.01521 11.3145 8.40419 11.3145H22.7754C21.3865 11.3145 20.2605 10.1885 20.2605 8.79952C20.2605 7.41054 21.3865 6.28455 22.7754 6.28455H57.985ZM57.985 16.3444C59.374 16.3444 60.5 17.4704 60.5 18.8594C60.5 20.2484 59.374 21.3744 57.985 21.3744C56.5961 21.3744 55.4701 20.2484 55.4701 18.8594C55.4701 17.4704 56.5961 16.3444 57.985 16.3444Z" fill="#D7D7D7"/>
<path fill-rule="evenodd" clip-rule="evenodd" d="M38.825 5.9247L42.167 30.2993L42.4672 32.7447C42.564 33.5325 42.0038 34.2495 41.216 34.3463L20.1764 36.9296C19.3886 37.0263 18.6715 36.4661 18.5748 35.6783L15.3356 9.29719C15.2873 8.9033 15.5674 8.54478 15.9613 8.49641C15.9637 8.49611 15.9662 8.49582 15.9687 8.49554L17.7142 8.29973M19.1258 8.14112L20.7739 7.95626L19.1258 8.14112Z" fill="white"/>
<path d="M39.6106 5.81699C39.5511 5.3831 39.1512 5.07959 38.7173 5.13908C38.2834 5.19857 37.9799 5.59853 38.0394 6.03242L39.6106 5.81699ZM42.167 30.2993L42.9541 30.2027L42.9526 30.1916L42.167 30.2993ZM42.4672 32.7447L43.2543 32.6481L42.4672 32.7447ZM41.216 34.3463L41.3126 35.1333L41.216 34.3463ZM20.1764 36.9296L20.273 37.7167L20.1764 36.9296ZM18.5748 35.6783L19.3619 35.5817L18.5748 35.6783ZM15.9687 8.49554L15.8803 7.7075L15.9687 8.49554ZM17.8026 9.08777C18.2379 9.03895 18.5511 8.64656 18.5023 8.21134C18.4535 7.77612 18.0611 7.46288 17.6258 7.5117L17.8026 9.08777ZM19.0374 7.35309C18.6022 7.40191 18.289 7.7943 18.3378 8.22952C18.3866 8.66474 18.779 8.97798 19.2142 8.92916L19.0374 7.35309ZM20.8623 8.74429C21.2975 8.69547 21.6107 8.30308 21.5619 7.86786C21.5131 7.43264 21.1207 7.1194 20.6855 7.16822L20.8623 8.74429ZM38.0394 6.03242L41.3814 30.4071L42.9526 30.1916L39.6106 5.81699L38.0394 6.03242ZM41.3799 30.396L41.6802 32.8414L43.2543 32.6481L42.9541 30.2027L41.3799 30.396ZM41.6802 32.8414C41.7235 33.1945 41.4724 33.5158 41.1193 33.5592L41.3126 35.1333C42.5351 34.9832 43.4044 33.8705 43.2543 32.6481L41.6802 32.8414ZM41.1193 33.5592L20.0797 36.1425L20.273 37.7167L41.3126 35.1333L41.1193 33.5592ZM20.0797 36.1425C19.7266 36.1859 19.4052 35.9348 19.3619 35.5817L17.7877 35.775C17.9378 36.9974 19.0505 37.8668 20.273 37.7167L20.0797 36.1425ZM19.3619 35.5817L16.1227 9.20055L14.5486 9.39383L17.7877 35.775L19.3619 35.5817ZM16.1227 9.20055C16.1277 9.24134 16.0987 9.27847 16.0579 9.28348L15.8646 7.70935C15.036 7.81108 14.4468 8.56525 14.5486 9.39383L16.1227 9.20055ZM16.0579 9.28348L16.0571 9.28357L15.8803 7.7075C15.8751 7.70809 15.8698 7.7087 15.8646 7.70935L16.0579 9.28348ZM16.0571 9.28357L17.8026 9.08777L17.6258 7.5117L15.8803 7.7075L16.0571 9.28357ZM19.2142 8.92916L20.8623 8.74429L20.6855 7.16822L19.0374 7.35309L19.2142 8.92916Z" fill="#1A2F36"/>
<path d="M39.6106 5.81699C39.5511 5.3831 39.1512 5.07959 38.7173 5.13908C38.2834 5.19857 37.9799 5.59853 38.0394 6.03242L39.6106 5.81699ZM42.167 30.2993L42.9541 30.2027L42.9526 30.1916L42.167 30.2993ZM42.4672 32.7447L43.2543 32.6481L42.4672 32.7447ZM41.216 34.3463L41.3126 35.1333L41.216 34.3463ZM20.1764 36.9296L20.273 37.7167L20.1764 36.9296ZM18.5748 35.6783L19.3619 35.5817L18.5748 35.6783ZM15.9687 8.49554L15.8803 7.7075L15.9687 8.49554ZM17.8026 9.08777C18.2379 9.03895 18.5511 8.64656 18.5023 8.21134C18.4535 7.77612 18.0611 7.46288 17.6258 7.5117L17.8026 9.08777ZM19.0374 7.35309C18.6022 7.40191 18.289 7.7943 18.3378 8.22952C18.3866 8.66474 18.779 8.97798 19.2142 8.92916L19.0374 7.35309ZM20.8623 8.74429C21.2975 8.69547 21.6107 8.30308 21.5619 7.86786C21.5131 7.43264 21.1207 7.1194 20.6855 7.16822L20.8623 8.74429ZM38.0394 6.03242L41.3814 30.4071L42.9526 30.1916L39.6106 5.81699L38.0394 6.03242ZM41.3799 30.396L41.6802 32.8414L43.2543 32.6481L42.9541 30.2027L41.3799 30.396ZM41.6802 32.8414C41.7235 33.1945 41.4724 33.5158 41.1193 33.5592L41.3126 35.1333C42.5351 34.9832 43.4044 33.8705 43.2543 32.6481L41.6802 32.8414ZM41.1193 33.5592L20.0797 36.1425L20.273 37.7167L41.3126 35.1333L41.1193 33.5592ZM20.0797 36.1425C19.7266 36.1859 19.4052 35.9348 19.3619 35.5817L17.7877 35.775C17.9378 36.9974 19.0505 37.8668 20.273 37.7167L20.0797 36.1425ZM19.3619 35.5817L16.1227 9.20055L14.5486 9.39383L17.7877 35.775L19.3619 35.5817ZM16.1227 9.20055C16.1277 9.24134 16.0987 9.27847 16.0579 9.28348L15.8646 7.70935C15.036 7.81108 14.4468 8.56525 14.5486 9.39383L16.1227 9.20055ZM16.0579 9.28348L16.0571 9.28357L15.8803 7.7075C15.8751 7.70809 15.8698 7.7087 15.8646 7.70935L16.0579 9.28348ZM16.0571 9.28357L17.8026 9.08777L17.6258 7.5117L15.8803 7.7075L16.0571 9.28357ZM19.2142 8.92916L20.8623 8.74429L20.6855 7.16822L19.0374 7.35309L19.2142 8.92916Z" fill="white" fill-opacity="0.76"/>
<path fill-rule="evenodd" clip-rule="evenodd" d="M37.9156 7.45878L40.9406 29.5487L41.2127 31.7649C41.3004 32.4788 40.7995 33.1278 40.094 33.2144L21.2526 35.5278C20.5471 35.6145 19.9042 35.1059 19.8165 34.392L16.9554 11.0902C16.87 10.3947 17.3646 9.76171 18.0601 9.67631L19.8449 9.45717" fill="#F6F7F7"/>
<path d="M22.7324 3.43292C22.7324 2.46943 23.5135 1.68836 24.477 1.68836H39.2887C39.7512 1.68836 40.1947 1.87202 40.5219 2.19895L44.707 6.38147C45.0344 6.70866 45.2183 7.15256 45.2183 7.61543V28.5375C45.2183 29.501 44.4373 30.282 43.4738 30.282H24.477C23.5135 30.282 22.7324 29.501 22.7324 28.5375V3.43292Z" fill="white"/>
<path d="M22.7324 3.43292C22.7324 2.46943 23.5135 1.68836 24.477 1.68836H39.2887C39.7512 1.68836 40.1947 1.87202 40.5219 2.19895L44.707 6.38147C45.0344 6.70866 45.2183 7.15256 45.2183 7.61543V28.5375C45.2183 29.501 44.4373 30.282 43.4738 30.282H24.477C23.5135 30.282 22.7324 29.501 22.7324 28.5375V3.43292Z" stroke="#1A2F36" stroke-width="1.58596"/>
<path d="M22.7324 3.43292C22.7324 2.46943 23.5135 1.68836 24.477 1.68836H39.2887C39.7512 1.68836 40.1947 1.87202 40.5219 2.19895L44.707 6.38147C45.0344 6.70866 45.2183 7.15256 45.2183 7.61543V28.5375C45.2183 29.501 44.4373 30.282 43.4738 30.282H24.477C23.5135 30.282 22.7324 29.501 22.7324 28.5375V3.43292Z" stroke="white" stroke-opacity="0.76" stroke-width="1.58596"/>
<path d="M39.9028 1.75928V5.92592C39.9028 6.5212 40.3854 7.00377 40.9807 7.00377H43.8311" stroke="#1A2F36" stroke-width="1.58596" stroke-linecap="round" stroke-linejoin="round"/>
<path d="M39.9028 1.75928V5.92592C39.9028 6.5212 40.3854 7.00377 40.9807 7.00377H43.8311" stroke="white" stroke-opacity="0.82" stroke-width="1.58596" stroke-linecap="round" stroke-linejoin="round"/>
<path d="M26.0088 25.3268H35.3501M26.0088 7.00342H35.3501H26.0088ZM26.0088 11.3148H41.4579H26.0088ZM26.0088 15.9855H41.4579H26.0088ZM26.0088 20.6561H41.4579H26.0088Z" stroke="#1A2F36" stroke-width="1.58596" stroke-linecap="round" stroke-linejoin="round"/>
<path d="M26.0088 25.3268H35.3501M26.0088 7.00342H35.3501H26.0088ZM26.0088 11.3148H41.4579H26.0088ZM26.0088 15.9855H41.4579H26.0088ZM26.0088 20.6561H41.4579H26.0088Z" stroke="white" stroke-opacity="0.76" stroke-width="1.58596" stroke-linecap="round" stroke-linejoin="round"/>
</svg>
