<svg width="108" height="36" viewBox="0 0 108 36" fill="none" xmlns="http://www.w3.org/2000/svg">
<g clip-path="url(#clip0_4056_69486)">
<path d="M0.210027 23.9483C0.14114 23.8799 0.0244141 23.9274 0.0244141 24.0243V36.0002H12.0491C12.1448 36.0002 12.1945 35.8843 12.1256 35.8159L0.210027 23.9483Z" fill="#1A73E8"/>
<path d="M36.1461 35.8158L25.679 25.4473L15.0264 36.0001H36.0695C36.1671 36.0001 36.215 35.8842 36.1461 35.8158Z" fill="#1A73E8"/>
<path d="M6.58448 14.9232C6.58448 12.6127 7.52594 10.5189 9.04911 9.00267L4.39348 4.37988C1.67817 7.07984 0 10.8058 0 14.9232C0 19.0406 1.67817 22.7665 4.39348 25.4665L9.04911 20.8437C7.52594 19.3275 6.58448 17.2336 6.58448 14.9232Z" fill="#F7BD01"/>
<path d="M15.029 23.3081C12.6926 23.3081 10.5781 22.3657 9.04919 20.8438L4.39355 25.4665L15.029 36.0003L25.6472 25.4836L20.9916 20.8609C19.4646 22.3733 17.3559 23.3081 15.029 23.3081Z" fill="#38A852"/>
<path d="M4.39355 4.37959L9.04919 9.00238C10.5781 7.48045 12.6926 6.53803 15.029 6.53803C17.3654 6.53803 19.4646 7.47285 20.9916 8.98528L25.6472 4.36248C22.9281 1.66633 19.1756 0 15.029 0C10.8824 0 7.1146 1.67393 4.39355 4.37959Z" fill="#E94134"/>
<path d="M23.4731 14.9227C23.4731 17.2427 22.524 19.3422 20.9912 20.8603L25.6468 25.4831C28.3717 22.7813 30.0575 19.0477 30.0575 14.9227C30.0575 10.7977 28.3717 7.06416 25.6468 4.3623L20.9912 8.9851C22.524 10.5032 23.4731 12.6028 23.4731 14.9227Z" fill="#1A73E8"/>
<path d="M15.0191 18.7417C17.1433 18.7417 18.8653 17.0318 18.8653 14.9226C18.8653 12.8134 17.1433 11.1035 15.0191 11.1035C12.8949 11.1035 11.1729 12.8134 11.1729 14.9226C11.1729 17.0318 12.8949 18.7417 15.0191 18.7417Z" fill="#1A73E8"/>
<path d="M47.8214 31.1562L45.1539 30.78C45.1156 30.7743 45.0831 30.7515 45.0678 30.7192L43.8737 28.3689C43.8316 28.2872 43.7092 28.2872 43.669 28.3689L42.4749 30.7192C42.4596 30.7515 42.4271 30.7743 42.3888 30.78L39.7214 31.1562C39.6276 31.1676 39.5893 31.2798 39.6582 31.3444L41.589 33.1722C41.6158 33.1969 41.6292 33.233 41.6215 33.271L41.1661 35.8531C41.1508 35.9443 41.2464 36.0146 41.3326 35.9709L43.7206 34.7511C43.7532 34.734 43.7934 34.734 43.8278 34.7511L46.214 35.9709C46.2963 36.0146 46.3958 35.9443 46.3805 35.8531L45.925 33.271C45.9174 33.2368 45.9308 33.1988 45.9576 33.1722L47.8883 31.3444C47.9572 31.2817 47.9189 31.1695 47.8252 31.1562H47.8214Z" fill="#FCB002"/>
<path d="M92.8426 31.1562L90.2 30.78C90.1617 30.7743 90.1311 30.7515 90.1139 30.7192L88.9313 28.3689C88.8911 28.2872 88.7686 28.2872 88.7285 28.3689L87.5459 30.7192C87.5306 30.7515 87.4981 30.7743 87.4598 30.78L84.8172 31.1562C84.7253 31.1676 84.6871 31.2798 84.756 31.3444L86.6676 33.1722C86.6944 33.1969 86.7078 33.233 86.7001 33.271L86.2485 35.8531C86.2332 35.9443 86.3289 36.0146 86.4112 35.9709L88.7763 34.7511C88.8088 34.734 88.8471 34.734 88.8815 34.7511L91.2467 35.9709C91.329 36.0146 91.4265 35.9443 91.4093 35.8531L90.9577 33.271C90.9501 33.2368 90.9635 33.1988 90.9903 33.1722L92.9019 31.3444C92.9689 31.2817 92.9325 31.1695 92.8406 31.1562H92.8426Z" fill="#FCB002"/>
<path d="M77.8624 31.1562L75.1949 30.78C75.1566 30.7743 75.1241 30.7515 75.1088 30.7192L73.9147 28.3689C73.8727 28.2872 73.7502 28.2872 73.71 28.3689L72.516 30.7192C72.5006 30.7515 72.4681 30.7743 72.4298 30.78L69.7624 31.1562C69.6686 31.1676 69.6303 31.2798 69.6992 31.3444L71.63 33.1722C71.6568 33.1969 71.6702 33.233 71.6625 33.271L71.2071 35.8531C71.1918 35.9443 71.2875 36.0146 71.3736 35.9709L73.7617 34.7511C73.7942 34.734 73.8344 34.734 73.8688 34.7511L76.255 35.9709C76.3373 36.0146 76.4368 35.9443 76.4215 35.8531L75.9661 33.271C75.9584 33.2368 75.9718 33.1988 75.9986 33.1722L77.9293 31.3444C77.9982 31.2817 77.96 31.1695 77.8662 31.1562H77.8624Z" fill="#FCB002"/>
<path d="M62.8021 31.1562L60.1595 30.78C60.1212 30.7743 60.0906 30.7515 60.0734 30.7192L58.8908 28.3689C58.8506 28.2872 58.7282 28.2872 58.688 28.3689L57.5054 30.7192C57.4901 30.7515 57.4576 30.7743 57.4193 30.78L54.7767 31.1562C54.6848 31.1676 54.6466 31.2798 54.7135 31.3444L56.6252 33.1722C56.652 33.1969 56.6634 33.233 56.6577 33.271L56.2061 35.8531C56.1908 35.9443 56.2865 36.0146 56.3707 35.9709L58.7339 34.7511C58.7664 34.734 58.8047 34.734 58.8391 34.7511L61.2023 35.9709C61.2846 36.0146 61.3822 35.9443 61.3669 35.8531L60.9153 33.271C60.9077 33.2368 60.9211 33.1988 60.9479 33.1722L62.8595 31.3444C62.9264 31.2817 62.8901 31.1695 62.7963 31.1562H62.8021Z" fill="#FCB002"/>
<path d="M107.966 31.3463C108.034 31.2836 107.996 31.1715 107.902 31.1582L105.235 30.782C105.197 30.7763 105.164 30.7535 105.149 30.7212L103.955 28.3708H103.957C103.915 28.2891 103.792 28.2891 103.752 28.3708L102.558 30.7212C102.543 30.7535 102.508 30.7763 102.472 30.782L99.8044 31.1582C99.7106 31.1696 99.6723 31.2817 99.7412 31.3463L101.672 33.1741C101.699 33.1988 101.712 33.2349 101.705 33.2729L101.249 35.8551C101.234 35.9463 101.331 36.0166 101.416 35.9729L103.802 34.7531C103.834 34.736 103.873 34.736 103.909 34.7531L106.295 35.9729C106.377 36.0166 106.477 35.9463 106.462 35.8551L106.006 33.2729C105.998 33.2387 106.012 33.2007 106.039 33.1741L107.969 31.3463H107.966Z" fill="#FCB002"/>
<path d="M70.517 3.2793H66.3934C66.1535 3.2793 65.959 3.4724 65.959 3.71061V25.0841C65.959 25.3223 66.1535 25.5154 66.3934 25.5154H70.517C70.7569 25.5154 70.9514 25.3223 70.9514 25.0841V3.71061C70.9514 3.4724 70.7569 3.2793 70.517 3.2793Z" fill="#1A73E8"/>
<path d="M105.955 3.2793H101.831C101.591 3.2793 101.396 3.4724 101.396 3.71061V25.0841C101.396 25.3223 101.591 25.5154 101.831 25.5154H105.955C106.194 25.5154 106.389 25.3223 106.389 25.0841V3.71061C106.389 3.4724 106.194 3.2793 105.955 3.2793Z" fill="#1A73E8"/>
<path d="M95.3265 3.2793H91.3674C91.2066 3.2793 91.0631 3.3819 91.0134 3.5339L86.5874 17.0869C86.4764 17.4289 85.9884 17.427 85.8794 17.0831L81.5988 3.5377C81.5509 3.3838 81.4074 3.2793 81.2448 3.2793H76.9393C76.6867 3.2793 76.5088 3.5244 76.5853 3.76191L83.4894 25.2608C83.5391 25.4128 83.6826 25.5154 83.8434 25.5154H88.3918C88.5526 25.5154 88.6961 25.4128 88.7458 25.2608L95.6805 3.76191C95.7589 3.5244 95.5791 3.2793 95.3265 3.2793Z" fill="#1A73E8"/>
<path d="M56.0453 18.7835C55.9133 18.5954 55.9802 18.3351 56.1869 18.2325C57.4728 17.6074 58.4793 16.7486 59.2084 15.658C60.0101 14.4572 60.4139 13.0283 60.4139 11.3715C60.4139 9.71467 60.0178 8.28014 59.2237 7.06792C58.4315 5.85569 57.3006 4.92088 55.8329 4.26346C54.3671 3.60605 52.6373 3.27734 50.6453 3.27734H41.2824C41.0776 3.27734 40.9111 3.44265 40.9111 3.64595V25.219C40.9111 25.4223 41.0776 25.5876 41.2824 25.5876H45.7428C45.9476 25.5876 46.114 25.4223 46.114 25.219V19.7431C46.114 19.5398 46.2805 19.3745 46.4853 19.3745H50.7065C50.829 19.3745 50.9419 19.4334 51.0127 19.5341L55.2378 25.5895V25.5857H60.102C60.4062 25.5857 60.5861 25.2456 60.412 24.9948L56.0434 18.7816L56.0453 18.7835ZM53.9194 14.2425C53.1061 14.9246 51.9178 15.2628 50.3544 15.2628H46.4872C46.2824 15.2628 46.116 15.0975 46.116 14.8942V7.85643C46.116 7.65313 46.2824 7.48783 46.4872 7.48783H50.3544C51.9178 7.48783 53.1061 7.82223 53.9194 8.49104V8.48724C54.7326 9.15796 55.1402 10.1365 55.1402 11.3734C55.1402 12.6103 54.7326 13.5641 53.9194 14.2425Z" fill="#1A73E8"/>
</g>
<defs>
<clipPath id="clip0_4056_69486">
<rect width="108" height="36" fill="white"/>
</clipPath>
</defs>
</svg>
