<svg width="41" height="40" viewBox="0 0 41 40" fill="none" xmlns="http://www.w3.org/2000/svg">
<rect x="1" y="0.5" width="39" height="39" rx="3.5" fill="white"/>
<rect x="1" y="0.5" width="39" height="39" rx="3.5" stroke="#BFCDFF"/>
<path d="M25.7885 24.685C25.7885 24.563 25.7442 24.4584 25.6557 24.3712C25.5672 24.2841 25.4641 24.2405 25.3462 24.2405C25.2282 24.2405 25.125 24.2847 25.0365 24.373C24.948 24.4615 24.9038 24.5647 24.9038 24.6827V27.4303C24.9038 27.5524 24.948 27.6571 25.0365 27.7443C25.125 27.8314 25.2282 27.875 25.3462 27.875C25.4641 27.875 25.5672 27.8307 25.6557 27.7423C25.7442 27.6537 25.7885 27.5506 25.7885 27.4327V24.685ZM27.2115 24.6827V27.4303C27.2115 27.5524 27.2558 27.6571 27.3443 27.7443C27.4328 27.8314 27.5359 27.875 27.6538 27.875C27.7718 27.875 27.875 27.8307 27.9635 27.7423C28.052 27.6537 28.0963 27.5506 28.0963 27.4327V24.685C28.0963 24.563 28.052 24.4584 27.9635 24.3712C27.875 24.2841 27.7718 24.2405 27.6538 24.2405C27.5359 24.2405 27.4328 24.2847 27.3443 24.373C27.2558 24.4615 27.2115 24.5647 27.2115 24.6827ZM15.6348 16.8652H25.3652C25.5778 16.8652 25.7559 16.7934 25.8997 16.6497C26.0434 16.5061 26.1152 16.328 26.1152 16.1155C26.1152 15.8962 26.0434 15.7163 25.8997 15.576C25.7559 15.4357 25.5778 15.3655 25.3652 15.3655H15.6348C15.4223 15.3655 15.2441 15.4374 15.1003 15.5813C14.9566 15.7249 14.8848 15.9031 14.8848 16.1158C14.8848 16.3283 14.9566 16.5063 15.1003 16.65C15.2441 16.7935 15.4223 16.8652 15.6348 16.8652ZM26.5 30.5578C25.2513 30.5578 24.1892 30.1199 23.3135 29.2443C22.4378 28.3686 22 27.3064 22 26.0577C22 24.8091 22.4378 23.7469 23.3135 22.8713C24.1892 21.9956 25.2513 21.5577 26.5 21.5577C27.7487 21.5577 28.8108 21.9956 29.6865 22.8713C30.5622 23.7469 31 24.8091 31 26.0577C31 27.3064 30.5622 28.3686 29.6865 29.2443C28.8108 30.1199 27.7487 30.5578 26.5 30.5578ZM12 13.3077C12 12.8106 12.177 12.385 12.531 12.031C12.885 11.677 13.3106 11.5 13.8077 11.5H27.1923C27.6894 11.5 28.115 11.677 28.469 12.031C28.823 12.385 29 12.8106 29 13.3077V18.6538C29 18.8663 28.9281 19.0444 28.7843 19.1883C28.6404 19.3319 28.4622 19.4037 28.2498 19.4037C28.0371 19.4037 27.859 19.3319 27.7155 19.1883C27.5718 19.0444 27.5 18.8663 27.5 18.6538V13.3077C27.5 13.2307 27.4679 13.1602 27.4038 13.0962C27.3398 13.0321 27.2692 13 27.1923 13H13.8077C13.7307 13 13.6603 13.0321 13.5963 13.0962C13.5321 13.1602 13.5 13.2307 13.5 13.3077V27.05H19.7098C19.7344 27.243 19.7716 27.4359 19.8213 27.6288C19.8708 27.8218 19.9265 28.0083 19.9885 28.1885C20.0525 28.3397 20.0208 28.4614 19.8933 28.5538C19.7658 28.6461 19.6449 28.6416 19.5308 28.5403L19.3692 28.4172C19.2821 28.3429 19.1847 28.3057 19.077 28.3057C18.9693 28.3057 18.8719 28.3429 18.7848 28.4172L17.9463 29.121C17.8591 29.1955 17.7616 29.2327 17.6537 29.2327C17.5461 29.2327 17.4487 29.1955 17.3615 29.121L16.523 28.4172C16.4358 28.3429 16.3384 28.3057 16.2308 28.3057C16.1231 28.3057 16.0257 28.3429 15.9385 28.4172L15.1 29.121C15.0128 29.1955 14.9154 29.2327 14.8077 29.2327C14.7001 29.2327 14.6027 29.1955 14.5155 29.121L13.677 28.4172C13.5898 28.3429 13.4924 28.3057 13.3848 28.3057C13.2769 28.3057 13.1794 28.3429 13.0923 28.4172L12 29.3943V13.3077ZM15.6348 24.6345H19.2598C19.4723 24.6345 19.6503 24.5626 19.794 24.4187C19.9378 24.2751 20.0098 24.0969 20.0098 23.8842C20.0098 23.6718 19.9378 23.4937 19.794 23.35C19.6503 23.2065 19.4723 23.1348 19.2598 23.1348H15.6348C15.4223 23.1348 15.2441 23.2066 15.1003 23.3503C14.9566 23.4941 14.8848 23.6723 14.8848 23.885C14.8848 24.0975 14.9566 24.2756 15.1003 24.4193C15.2441 24.5628 15.4223 24.6345 15.6348 24.6345ZM15.6348 20.75H22.5115C22.724 20.75 22.9022 20.6781 23.046 20.5343C23.1897 20.3904 23.2615 20.2122 23.2615 19.9998C23.2615 19.7871 23.1897 19.609 23.046 19.4655C22.9022 19.3218 22.724 19.25 22.5115 19.25H15.6348C15.4223 19.25 15.2441 19.3219 15.1003 19.4658C14.9566 19.6096 14.8848 19.7878 14.8848 20.0003C14.8848 20.2129 14.9566 20.391 15.1003 20.5345C15.2441 20.6782 15.4223 20.75 15.6348 20.75Z" fill="#194BFB"/>
</svg>
