<svg width="25" height="24" viewBox="0 0 25 24" fill="none" xmlns="http://www.w3.org/2000/svg">
<path d="M6.5 21.5C5.80133 21.5 5.21 21.258 4.726 20.774C4.242 20.29 4 19.6987 4 19V17.923C4 17.426 4.177 17.0005 4.531 16.6465C4.885 16.2925 5.31058 16.1155 5.80775 16.1155H7V4.30775C7 3.81058 7.177 3.385 7.531 3.031C7.885 2.677 8.31058 2.5 8.80775 2.5H19.1923C19.6894 2.5 20.115 2.677 20.469 3.031C20.823 3.385 21 3.81058 21 4.30775V19C21 19.6987 20.758 20.29 20.274 20.774C19.79 21.258 19.1987 21.5 18.5 21.5H6.5ZM18.5 20C18.7833 20 19.0208 19.9042 19.2125 19.7125C19.4042 19.5208 19.5 19.2833 19.5 19V4.30775C19.5 4.21792 19.4712 4.14417 19.4135 4.0865C19.3558 4.02883 19.2821 4 19.1923 4H8.80775C8.71792 4 8.64417 4.02883 8.5865 4.0865C8.52883 4.14417 8.5 4.21792 8.5 4.30775V16.1155H15.6923C16.1894 16.1155 16.615 16.2925 16.969 16.6465C17.323 17.0005 17.5 17.426 17.5 17.923V19C17.5 19.2833 17.5958 19.5208 17.7875 19.7125C17.9792 19.9042 18.2167 20 18.5 20ZM10.4423 8.69225C10.2298 8.69225 10.0517 8.62033 9.908 8.4765C9.76417 8.33267 9.69225 8.1545 9.69225 7.942C9.69225 7.72933 9.76417 7.55125 9.908 7.40775C10.0517 7.26408 10.2298 7.19225 10.4423 7.19225H17.5577C17.7703 7.19225 17.9483 7.26417 18.092 7.408C18.2358 7.55183 18.3077 7.73008 18.3077 7.94275C18.3077 8.15525 18.2358 8.33333 18.092 8.477C17.9483 8.6205 17.7703 8.69225 17.5577 8.69225H10.4423ZM10.4423 11.577C10.2298 11.577 10.0517 11.5051 9.908 11.3613C9.76417 11.2174 9.69225 11.0392 9.69225 10.8265C9.69225 10.614 9.76417 10.4359 9.908 10.2923C10.0517 10.1488 10.2298 10.077 10.4423 10.077H17.5577C17.7703 10.077 17.9483 10.1489 18.092 10.2928C18.2358 10.4364 18.3077 10.6146 18.3077 10.8273C18.3077 11.0399 18.2358 11.218 18.092 11.3615C17.9483 11.5052 17.7703 11.577 17.5577 11.577H10.4423ZM6.5 20H16V17.923C16 17.8333 15.9712 17.7597 15.9135 17.702C15.8558 17.6442 15.7821 17.6152 15.6923 17.6152H5.80775C5.71792 17.6152 5.64417 17.6442 5.5865 17.702C5.52883 17.7597 5.5 17.8333 5.5 17.923V19C5.5 19.2833 5.59583 19.5208 5.7875 19.7125C5.97917 19.9042 6.21667 20 6.5 20ZM6.5 20H5.5H16H6.5Z" fill="#194BFB"/>
</svg>
